<svg xmlns="http://www.w3.org/2000/svg" width="171" height="36" viewBox="0 0 171 36" fill="none"><path fill-rule="evenodd" clip-rule="evenodd" d="M86.2868 0C76.091 0 67.8462 7.93007 67.8462 17.6224C67.8462 22.4056 69.8602 26.7483 73.07 29.8951V12.3986H77.7902V31.0909H74.4546C77.6644 33.6713 81.7553 35.1818 86.2238 35.1818C92.4546 35.1818 97.993 32.2238 101.329 27.6923L100.888 28.1958C99.6294 29.5175 98.056 30.4615 96.2308 31.0909C94.4056 31.7203 92.3287 32.035 90 32.035C88.1119 31.972 86.4126 31.7832 84.8392 31.4685C83.2658 31.0909 82.07 30.7762 81.1259 30.3986V15.986H90.9441V20.0769H86.035V27.2517C86.3497 27.3776 86.8532 27.5035 87.4826 27.6294C88.1749 27.7552 88.9301 27.8182 89.8742 27.8182C92.8322 27.8182 95.1609 26.8741 96.8602 25.1119C98.5595 23.2867 99.4406 20.7692 99.5035 17.4965C99.4406 14.1608 98.4965 11.6434 96.6714 9.88112C94.7833 8.11888 92.3916 7.23776 89.3707 7.23776C87.9231 7.23776 86.7273 7.3007 85.7203 7.55245C84.7133 7.8042 83.8322 8.05594 83.077 8.43357L81.9441 4.21678C82.6364 3.9021 83.5805 3.58741 84.8392 3.33566C86.0979 3.08392 87.6084 2.8951 89.3077 2.8951C93.9651 2.95804 97.6784 4.27972 100.448 6.92308C101.518 7.93007 102.336 9.06294 103.028 10.3217C100.133 4.21678 93.7133 0 86.2868 0ZM77.3497 8.4965C76.9091 9 76.2798 9.25175 75.4616 9.25175C74.6434 9.18881 74.014 8.93706 73.5735 8.4965C73.1329 8.05594 72.8812 7.42657 72.8812 6.73427C72.8812 5.97902 73.1329 5.41259 73.5735 4.90909C74.077 4.40559 74.7063 4.15385 75.4616 4.15385C76.2798 4.21678 76.9091 4.40559 77.3497 4.90909C77.7902 5.34965 78.042 5.97902 78.042 6.73427C78.042 7.42657 77.7902 7.99301 77.3497 8.4965Z" fill="white"></path><path d="M127.196 23.7902L127.636 24.6084L124.867 26.4965C123.797 27.1888 123.042 27.5664 122.601 27.6923C122.484 27.7257 122.376 27.7592 122.276 27.7903L122.275 27.7906L122.274 27.7909C121.997 27.8764 121.779 27.9441 121.594 27.9441C121.28 27.9441 121.028 27.8182 120.839 27.5035C120.65 27.1888 120.524 26.7483 120.524 26.1818C120.524 25.3007 120.713 24.1049 121.091 22.5944L123.105 14.3497C123.374 13.2748 123.642 11.9247 123.95 10.3776C124.003 10.1131 124.057 9.8421 124.112 9.56644C124.301 8.43357 124.364 7.74126 124.364 7.48952C124.364 7.3007 124.301 7.11189 124.112 7.04896C123.86 6.92308 123.357 6.86014 122.664 6.86014H121.783L121.909 5.91609C124.112 5.66434 126.252 5.22378 128.266 4.46854L128.643 4.78322L127.573 9.25175L125.371 18.6294C124.615 21.7762 124.301 23.7273 124.301 24.4825C124.301 24.7343 124.364 24.9231 124.427 25.049C124.489 25.1748 124.615 25.2378 124.741 25.2378C124.867 25.2378 125.119 25.1748 125.434 24.986C125.705 24.7957 125.977 24.6172 126.239 24.4453C126.583 24.2195 126.91 24.0046 127.196 23.7902Z" fill="white"></path><path d="M0 16.4266L0.377622 17.2448C1.00699 16.7413 1.6993 16.3007 2.51748 15.986C2.83217 15.7972 3.08392 15.7343 3.27273 15.7343C3.52448 15.7343 3.65035 15.8601 3.65035 16.1119C3.65035 16.6783 3.33566 17.8741 2.83217 19.6993L1.82517 23.3497C1.51049 24.5455 1.32168 25.5525 1.32168 26.3077C1.32168 26.8741 1.44755 27.3147 1.63636 27.5664C1.82517 27.8182 2.13986 27.9441 2.51748 27.9441C2.76923 27.9441 3.02098 27.8811 3.33566 27.7553C3.77622 27.5664 4.40559 27.2518 5.28671 26.7483L8.4965 24.6084L8.05594 23.7902C6.54545 24.7343 5.66434 25.2378 5.41259 25.2378C5.0979 25.2378 4.97203 25.1119 4.97203 24.7343C4.97203 24.042 5.34965 22.4685 6.1049 19.8881L6.60839 18.2518C7.3007 15.986 7.61539 14.5385 7.61539 13.7832C7.61539 13.4056 7.55245 13.0909 7.36364 12.9021C7.17483 12.7133 6.92308 12.5874 6.67133 12.5874C6.23077 12.5874 5.6014 12.7762 4.72028 13.2168C4.02797 13.5315 2.45455 14.6014 0 16.4266Z" fill="white"></path><path d="M5.28671 7.93008C5.28671 7.17484 5.47552 6.54546 5.91608 6.10491C6.29371 5.66435 6.7972 5.4126 7.42657 5.4126C7.93007 5.4126 8.30769 5.53847 8.62238 5.85316C8.93706 6.16784 9.06294 6.6084 9.06294 7.1119C9.06294 7.80421 8.87413 8.43358 8.43357 8.87414C8.05594 9.3147 7.48951 9.56644 6.86014 9.56644C6.35664 9.56644 5.91608 9.44057 5.6014 9.12588C5.41259 8.8112 5.28671 8.43358 5.28671 7.93008Z" fill="white"></path><path d="M9.75536 27.5035L10.133 27.8811C11.077 27.6293 12.2099 27.3776 13.5316 27.2517C13.8463 24.986 14.4127 22.972 15.2309 21.2098C16.0491 19.5105 17.0561 18 18.2519 16.8042C19.133 15.9231 19.8253 15.4825 20.3288 15.4825C20.5176 15.4825 20.6435 15.4825 20.7693 15.6084C20.8952 15.7342 20.9582 15.8601 20.9582 16.0489C20.9582 16.2811 20.8554 16.7531 20.7003 17.465C20.6453 17.7179 20.5836 18.0012 20.5176 18.3147C20.4547 18.8182 20.2029 19.8252 19.7624 21.3356L19.2589 23.0349C18.8183 24.4825 18.6295 25.4895 18.6295 26.1818C18.6295 26.8112 18.6924 27.2517 18.8812 27.5035C19.0071 27.7552 19.3218 27.8811 19.6994 27.8811C20.2029 27.8811 20.8952 27.6294 21.7763 27.1888C22.4057 26.8741 23.6015 26.0559 25.4267 24.7342L25.0491 23.8531C24.7344 24.1678 24.1679 24.5454 23.5386 24.9231C23.2239 25.1119 22.9721 25.2377 22.7833 25.2377C22.5316 25.2377 22.4057 25.0489 22.4057 24.6713C22.4057 23.7902 22.5945 22.5944 23.0351 21.0839L23.7903 18.2517C24.4197 16.0489 24.7344 14.6014 24.7344 13.9091C24.7344 13.4685 24.6714 13.0909 24.4197 12.8391C24.1679 12.5874 23.8533 12.4615 23.4127 12.4615C22.9721 12.4615 22.4686 12.6503 21.8393 12.9021C20.9582 13.2797 20.077 13.9091 19.07 14.7273C18.126 15.6084 17.1819 16.5524 16.3638 17.5594C16.3222 17.6218 16.272 17.6962 16.2136 17.7828L16.2121 17.7851C15.9163 18.2236 15.4092 18.9755 14.7274 20.0769L15.3568 17.7482C15.6085 16.8042 15.8603 15.7342 16.112 14.5384C16.1267 14.4353 16.1415 14.3391 16.1554 14.2481C16.2009 13.9507 16.2379 13.7094 16.2379 13.4685C16.2379 13.1538 16.112 12.9021 15.9861 12.7762C15.8603 12.5874 15.6714 12.5245 15.3568 12.5245C15.0271 12.5245 14.7454 12.6204 14.4279 12.7285C14.3818 12.7442 14.3347 12.7602 14.2868 12.7762C13.6575 13.028 12.7763 13.5314 11.7693 14.2867L9.44067 16.0489L9.8183 16.93C10.2589 16.5524 10.8253 16.1748 11.4547 15.8601C11.7693 15.6713 12.0211 15.6084 12.147 15.6084C12.3987 15.6084 12.5246 15.7342 12.5246 16.0489C12.5246 16.4266 12.4617 17.3077 12.2099 18.6294C11.9582 19.951 11.7064 21.2098 11.3288 22.4685C11.14 23.1608 10.8253 24.2937 10.3218 25.993C10.133 26.4335 9.94417 26.937 9.75536 27.5035Z" fill="white"></path><path d="M34.0488 25.9301L36.3775 24.2308L35.9999 23.3497C35.2447 23.979 34.4894 24.4825 33.5454 25.1119C33.1048 25.3636 32.7272 25.4895 32.4125 25.4895C32.1607 25.4895 31.9719 25.3636 31.8461 25.2378C31.7202 25.1119 31.6572 24.8601 31.6572 24.6084C31.6572 24.1049 31.909 22.7832 32.3495 20.7063C32.916 18 33.3565 16.049 33.7342 14.8532H35.3705C36.2516 14.8532 37.1957 14.9161 38.0768 14.979C38.0768 14.6643 38.1398 14.3497 38.2656 13.972L38.4544 13.2168L38.3286 13.0909C37.6363 13.1539 36.7551 13.2168 35.6223 13.2168H34.0488C34.4894 11.3916 34.9929 9.56644 35.4964 7.74127L35.1817 7.36365C33.7854 7.88726 32.5505 8.24953 31.5266 8.54988L31.2796 8.62239C31.2796 9.50351 31.0908 10.9511 30.7132 12.965C29.2656 13.4685 28.0698 13.8462 27.0628 14.035L26.874 14.8532H30.2726C30.2097 15.4825 29.895 16.8671 29.3915 19.0699C28.6363 22.4056 28.1957 24.3567 28.1328 24.7973C28.0698 25.2378 28.0069 25.6783 28.0069 25.993C28.0069 26.6224 28.1957 27.0629 28.5104 27.4406C28.8251 27.7553 29.2656 27.9441 29.7691 27.9441C30.2097 27.9441 30.7132 27.8182 31.3426 27.5664C31.9719 27.3147 32.853 26.7483 34.0488 25.9301Z" fill="white"></path><path fill-rule="evenodd" clip-rule="evenodd" d="M49.6572 24.6084L49.3425 23.7902C48.3356 24.4196 47.3286 24.9231 46.3845 25.1748C45.4404 25.4895 44.6852 25.6783 44.1188 25.6783C43.3635 25.6783 42.7971 25.4266 42.3565 25.0489C41.916 24.6713 41.7272 24.0419 41.7272 23.2238C41.7272 22.5944 41.853 21.9021 42.0419 21.1468C44.0558 20.8321 45.6922 20.3287 47.0768 19.6993C48.4614 19.0699 49.4055 18.3147 49.909 17.5594C50.4754 16.7412 50.7272 15.9231 50.7272 14.979C50.7272 14.2238 50.4125 13.5944 49.909 13.1538C49.3425 12.7133 48.6502 12.4615 47.7062 12.4615C46.6992 12.4615 45.6922 12.7133 44.6852 13.2168C42.923 14.1608 41.6642 14.979 40.909 15.7972C40.1537 16.5524 39.5873 17.6224 39.1467 19.007C38.5803 20.958 38.2656 22.5944 38.2656 24.0419C38.2656 25.3007 38.5803 26.2447 39.2726 26.8741C39.9649 27.5664 40.909 27.8811 42.1677 27.8811C42.7971 27.8811 43.4894 27.7552 44.2446 27.5035C44.9999 27.2517 45.9439 26.8741 47.0139 26.2447L49.6572 24.6084ZM45.5663 19.1328C44.937 19.5734 43.8041 19.951 42.2307 20.3916C42.6712 18.4405 43.1118 17.0559 43.6153 16.3007C43.9929 15.4196 44.4335 14.8531 44.874 14.5384C45.3146 14.2238 45.8181 14.0349 46.3216 14.0349C46.7621 14.0349 47.1398 14.1608 47.3915 14.4126C47.6432 14.6643 47.7691 15.0419 47.7691 15.4825C47.7691 16.0489 47.5803 16.6783 47.1398 17.4335C46.6992 18.1888 46.1957 18.7552 45.5663 19.1328Z" fill="white"></path><path d="M52.6785 27.5035L52.9932 27.8811C53.4734 27.7531 54.0028 27.6412 54.5725 27.5209C55.1226 27.4047 55.7105 27.2805 56.3288 27.1259C56.8323 23.2867 57.7764 20.3287 59.0981 18.1888C59.9163 16.9301 60.7344 16.3007 61.6785 16.3007C62.2449 16.3007 62.8114 16.5525 63.3149 16.993L63.6925 16.8042C63.7554 15.2937 63.9442 13.8462 64.3848 12.5245C64.133 12.4616 63.8813 12.3986 63.5666 12.3986C63.0002 12.3986 62.4967 12.5245 62.0561 12.7762C61.4897 13.1539 60.7974 13.972 59.9792 15.1679C59.2239 16.4266 58.4058 17.8741 57.6505 19.6364H57.4617L57.6505 18.8182C58.4058 15.9231 58.7834 14.1609 58.7834 13.5944C58.7834 13.2797 58.7205 12.9651 58.5316 12.7762C58.3428 12.5874 58.154 12.4616 57.9023 12.4616C57.0211 12.4616 55.0701 13.6574 52.1121 16.049L52.4897 16.8672C53.0561 16.3637 53.6225 15.986 54.126 15.6713C54.4407 15.4825 54.6925 15.4196 54.8184 15.4196C54.9442 15.4196 55.0072 15.4196 55.0701 15.5455C55.133 15.6713 55.133 15.8602 55.133 16.1119C55.133 16.6154 55.0701 17.2448 54.9442 18.1888C54.7554 19.5734 54.5037 20.7692 54.2519 21.7762C53.7484 23.7902 53.2449 25.6783 52.6785 27.5035Z" fill="white"></path><path fill-rule="evenodd" clip-rule="evenodd" d="M108.315 25.5524C108.315 26.0559 108.566 26.5594 109.133 27.0629C108.838 27.169 108.561 27.2706 108.302 27.3657C107.176 27.7789 106.383 28.0699 105.923 28.0699C104.916 28.5734 104.161 29.2028 103.657 29.8951C103.154 30.5874 102.902 31.3426 102.902 32.0349C102.902 33.1678 103.469 34.1119 104.538 34.8671C105.608 35.6224 107.308 36 109.51 36C112.028 36 114.105 35.4335 115.678 34.2377C117 33.2937 117.629 32.0979 117.629 30.6503C117.629 29.958 117.441 29.3916 117.126 28.8252C116.811 28.2587 116.182 27.6923 115.301 27.0629L113.224 25.6154C112.594 25.2377 112.154 24.8601 111.965 24.6084C111.776 24.4196 111.713 24.2307 111.713 24.0419C111.713 23.8531 111.839 23.6014 112.154 23.3496C112.469 23.0349 113.035 22.7832 113.979 22.4056C115.301 21.9021 116.245 21.3986 116.748 20.958C117.315 20.5175 117.755 19.8881 118.133 19.007C118.51 18.1888 118.699 17.3077 118.699 16.4895C118.699 15.9231 118.573 15.3566 118.385 14.7902H118.762C119.706 14.7902 120.462 14.8531 121.091 14.979L121.469 13.3426L121.343 13.0909L118.322 13.2168C117.881 13.2168 117.503 13.2168 117.189 13.1538C117.026 13.1132 116.837 13.0463 116.622 12.9701C116.504 12.9283 116.379 12.8837 116.245 12.8391C115.615 12.5874 114.923 12.4615 114.042 12.4615C113.413 12.4615 112.72 12.5874 112.028 12.8391C110.455 13.3426 109.385 13.8461 108.755 14.2867C108.126 14.6643 107.559 15.3566 107.119 16.2377C106.678 17.1189 106.427 18.1259 106.427 19.1328C106.427 19.951 106.615 20.6433 106.93 21.2098C107.245 21.7762 107.685 22.2168 108.252 22.4685C109.07 22.8461 109.825 23.0349 110.643 23.0349H111.336C111.216 23.1146 111.097 23.2006 110.971 23.2909C110.7 23.4859 110.401 23.701 110.014 23.9161L108.818 24.6084C108.503 24.8601 108.315 25.1119 108.315 25.5524ZM108.252 28.3846L109.825 27.6923L111.21 28.5734C112.657 29.5804 113.538 30.2727 113.853 30.6503C114.168 31.028 114.357 31.4685 114.357 31.9091C114.357 32.7273 113.979 33.4825 113.224 34.0489C112.469 34.6154 111.399 34.93 110.077 34.93C108.755 34.93 107.622 34.6154 106.867 33.986C106.049 33.3566 105.671 32.6014 105.671 31.7203C105.671 31.2797 105.797 30.8391 105.986 30.3986C106.175 30.021 106.427 29.6433 106.804 29.3286C107.182 29.014 107.622 28.6993 108.252 28.3846ZM110.266 21.3356C109.825 20.8321 109.636 20.1398 109.636 19.1328C109.636 17.8112 109.951 16.6154 110.517 15.5454C111.147 14.4755 111.965 13.9091 113.035 13.9091C113.79 13.9091 114.357 14.1608 114.797 14.6014C115.238 15.0419 115.427 15.7342 115.427 16.6783C115.427 17.6853 115.301 18.6923 114.923 19.5734C114.545 20.4545 114.168 21.0839 113.664 21.4615C113.161 21.8391 112.657 22.028 112.028 22.028C111.273 22.028 110.706 21.7762 110.266 21.3356Z" fill="white"></path><path fill-rule="evenodd" clip-rule="evenodd" d="M144 23.7902L144.315 24.7972C141.734 26.8741 139.972 27.9441 138.965 27.9441C138.65 27.9441 138.399 27.8182 138.21 27.6294C137.958 27.3147 137.832 26.9371 137.832 26.4965C137.832 25.8671 138.21 24.1678 138.902 21.2727L139.154 20.2028C137.895 22.1538 137.014 23.4755 136.573 24.042C135.755 25.049 135 25.8042 134.308 26.3706C133.615 26.9371 132.86 27.3776 132.168 27.6923C131.727 27.8811 131.413 27.9441 131.098 27.9441C130.531 27.9441 130.091 27.7552 129.776 27.3147C129.462 26.8741 129.273 26.1818 129.273 25.1748C129.273 23.979 129.524 22.5944 129.965 20.8951C130.406 19.2587 130.909 17.9371 131.413 17.0559C131.664 16.5524 132.231 15.986 133.112 15.3566C134.748 14.035 135.881 13.2797 136.573 12.965C137.266 12.6503 137.958 12.5245 138.776 12.5245C139.343 12.5245 139.909 12.5874 140.476 12.7133C141.042 12.8392 141.545 13.028 142.112 13.2797L143.559 12.5245L144.063 12.8392C144.045 12.8922 144.023 12.9551 143.996 13.0279C143.929 13.2145 143.839 13.4663 143.748 13.7832L143.182 15.8601L141.482 23.2867C141.457 23.4165 141.431 23.5409 141.406 23.66L141.405 23.6645C141.31 24.1208 141.231 24.4984 141.231 24.7972C141.231 25.1748 141.357 25.3636 141.608 25.3636C141.923 25.3007 142.804 24.7972 144 23.7902ZM139.972 14.8531C139.531 14.6014 139.091 14.4755 138.65 14.3496C138.21 14.2238 137.832 14.1608 137.392 14.1608C136.699 14.1608 136.07 14.4126 135.566 14.8531C135.063 15.3566 134.559 16.5524 133.93 18.4406C133.175 21.021 132.734 22.9091 132.734 24.1678C132.734 24.5455 132.797 24.7972 132.923 24.986C133.049 25.1748 133.175 25.2378 133.364 25.2378C133.489 25.2378 133.741 25.1748 133.993 24.986C134.685 24.5455 135.503 23.7273 136.385 22.5315C137.329 21.3357 138.021 20.1399 138.65 18.8811C139.217 17.6224 139.594 16.4895 139.783 15.5455L139.972 14.8531Z" fill="white"></path><path d="M145.636 27.0629C146.014 25.6154 146.266 24.2937 146.329 22.9091H147.273L147.336 24.4196C147.776 24.9231 148.343 25.3636 149.098 25.7412C149.853 26.0559 150.546 26.2447 151.301 26.2447C152.245 26.2447 152.937 26.0559 153.441 25.6154C153.944 25.1748 154.196 24.6084 154.196 23.9161C154.196 23.3496 154.007 22.9091 153.692 22.5315C153.378 22.1538 152.811 21.9021 151.993 21.7762L150.671 21.5245C149.413 21.2727 148.595 20.958 148.154 20.5175C147.462 19.8881 147.147 19.0699 147.147 18C147.147 16.8042 147.588 15.7972 148.406 15.1049C150.42 13.4056 152.308 12.5874 154.196 12.5874C154.762 12.5874 155.392 12.6503 156.021 12.8392C156.65 12.965 157.217 13.2168 157.846 13.5315C157.595 14.6014 157.343 15.8601 157.217 17.2447H156.273L156.084 15.7343C155.455 15.2308 154.888 14.8531 154.322 14.6014C153.755 14.4126 153.189 14.2867 152.56 14.2867C151.804 14.2867 151.175 14.4755 150.734 14.9161C150.294 15.3566 150.042 15.8601 150.042 16.4895C150.042 17.1189 150.231 17.6224 150.671 18C151.112 18.3776 151.93 18.6923 153.126 18.8811L154.007 19.007C155.077 19.1958 155.895 19.5734 156.462 20.2028C156.965 20.7692 157.28 21.5245 157.28 22.4685C157.28 23.4126 156.965 24.2308 156.336 24.9231C155.706 25.6783 154.825 26.3706 153.692 27C152.56 27.6923 151.301 28.007 149.853 28.007C149.161 28.007 148.595 27.944 148.028 27.8811C147.73 27.7319 147.321 27.6049 146.815 27.4476C146.467 27.3393 146.072 27.2168 145.636 27.0629Z" fill="white"></path><path d="M158.79 27.0629C159.168 25.6154 159.419 24.2937 159.482 22.9091H160.426L160.489 24.4196C160.93 24.9231 161.496 25.3636 162.252 25.7412C163.007 26.0559 163.699 26.2447 164.454 26.2447C165.398 26.2447 166.091 26.0559 166.594 25.6154C167.098 25.1748 167.349 24.6084 167.349 23.9161C167.349 23.3496 167.161 22.9091 166.846 22.5315C166.531 22.1538 165.965 21.9021 165.147 21.7762L163.825 21.5245C162.566 21.2727 161.748 20.958 161.308 20.5175C160.615 19.8881 160.301 19.0699 160.301 18C160.301 16.8042 160.741 15.7972 161.559 15.1049C163.573 13.4056 165.461 12.5874 167.349 12.5874C167.916 12.5874 168.545 12.6503 169.175 12.8392C169.804 12.965 170.37 13.2168 171 13.5315C170.748 14.6014 170.496 15.8601 170.37 17.2447H169.426L169.238 15.7343C168.608 15.2308 168.042 14.8531 167.475 14.6014C166.909 14.4126 166.342 14.2867 165.713 14.2867C164.958 14.2867 164.328 14.4755 163.888 14.9161C163.447 15.3566 163.196 15.8601 163.196 16.4895C163.196 17.1189 163.384 17.6224 163.825 18C164.266 18.3776 165.084 18.6923 166.28 18.8811L167.161 19.007C168.231 19.1958 169.049 19.5734 169.615 20.2028C170.119 20.7692 170.433 21.5245 170.433 22.4685C170.433 23.4126 170.119 24.2308 169.489 24.9231C168.86 25.6783 167.979 26.3706 166.846 27C165.713 27.6923 164.454 28.007 163.007 28.007C162.315 28.007 161.748 27.944 161.182 27.8811C160.892 27.7155 160.439 27.5772 159.84 27.3944L159.839 27.3939C159.528 27.299 159.177 27.1919 158.79 27.0629Z" fill="white"></path></svg>